<svg preserveAspectRatio="none" overflow="visible" style="display: block;" width="21" height="20" viewBox="0 0 21 20" fill="none" xmlns="http://www.w3.org/2000/svg">
<path id="Icon" d="M5.25 20C4.52083 20 3.90104 19.7464 3.39062 19.2391C2.88021 18.7319 2.625 18.1159 2.625 17.3913C2.625 16.6667 2.88021 16.0507 3.39062 15.5435C3.90104 15.0362 4.52083 14.7826 5.25 14.7826C5.45417 14.7826 5.64375 14.8043 5.81875 14.8478C5.99375 14.8913 6.16146 14.9493 6.32187 15.0217L7.56875 13.4783C7.16042 13.029 6.87604 12.5217 6.71563 11.9565C6.55521 11.3913 6.51875 10.8261 6.60625 10.2609L4.83438 9.67391C4.58646 10.0362 4.27292 10.3261 3.89375 10.5435C3.51458 10.7609 3.09167 10.8696 2.625 10.8696C1.89583 10.8696 1.27604 10.6159 0.765625 10.1087C0.255208 9.60145 0 8.98551 0 8.26087C0 7.53623 0.255208 6.92029 0.765625 6.41304C1.27604 5.9058 1.89583 5.65217 2.625 5.65217C3.35417 5.65217 3.97396 5.9058 4.48438 6.41304C4.99479 6.92029 5.25 7.53623 5.25 8.26087V8.43478L7.02187 9.04348C7.31354 8.52174 7.70379 8.07971 8.19262 7.71739C8.68087 7.35507 9.23125 7.12319 9.84375 7.02174V5.13043C9.275 4.97101 8.80454 4.6629 8.43238 4.20609C8.06079 3.74985 7.875 3.21739 7.875 2.6087C7.875 1.88406 8.13021 1.26812 8.64062 0.76087C9.15104 0.253623 9.77083 0 10.5 0C11.2292 0 11.849 0.253623 12.3594 0.76087C12.8698 1.26812 13.125 1.88406 13.125 2.6087C13.125 3.21739 12.9354 3.74985 12.5563 4.20609C12.1771 4.6629 11.7104 4.97101 11.1562 5.13043V7.02174C11.7687 7.12319 12.3194 7.35507 12.8082 7.71739C13.2965 8.07971 13.6865 8.52174 13.9781 9.04348L15.75 8.43478V8.26087C15.75 7.53623 16.0052 6.92029 16.5156 6.41304C17.026 5.9058 17.6458 5.65217 18.375 5.65217C19.1042 5.65217 19.724 5.9058 20.2344 6.41304C20.7448 6.92029 21 7.53623 21 8.26087C21 8.98551 20.7448 9.60145 20.2344 10.1087C19.724 10.6159 19.1042 10.8696 18.375 10.8696C17.9083 10.8696 17.4819 10.7609 17.0958 10.5435C16.709 10.3261 16.399 10.0362 16.1656 9.67391L14.3938 10.2609C14.4813 10.8261 14.4448 11.3875 14.2844 11.9452C14.124 12.5035 13.8396 13.0145 13.4313 13.4783L14.6781 15C14.8385 14.9275 15.0063 14.873 15.1813 14.8365C15.3563 14.8006 15.5458 14.7826 15.75 14.7826C16.4792 14.7826 17.099 15.0362 17.6094 15.5435C18.1198 16.0507 18.375 16.6667 18.375 17.3913C18.375 18.1159 18.1198 18.7319 17.6094 19.2391C17.099 19.7464 16.4792 20 15.75 20C15.0208 20 14.401 19.7464 13.8906 19.2391C13.3802 18.7319 13.125 18.1159 13.125 17.3913C13.125 17.1014 13.1725 16.8226 13.2676 16.5548C13.3621 16.2864 13.4896 16.0435 13.65 15.8261L12.4031 14.2826C11.8052 14.6159 11.1673 14.7826 10.4895 14.7826C9.81108 14.7826 9.17292 14.6159 8.575 14.2826L7.35 15.8261C7.51042 16.0435 7.63817 16.2864 7.73325 16.5548C7.82775 16.8226 7.875 17.1014 7.875 17.3913C7.875 18.1159 7.61979 18.7319 7.10938 19.2391C6.59896 19.7464 5.97917 20 5.25 20ZM2.625 9.13043C2.87292 9.13043 3.08088 9.04696 3.24888 8.88C3.41629 8.71362 3.5 8.50725 3.5 8.26087C3.5 8.01449 3.41629 7.80783 3.24888 7.64087C3.08088 7.47449 2.87292 7.3913 2.625 7.3913C2.37708 7.3913 2.16942 7.47449 2.002 7.64087C1.834 7.80783 1.75 8.01449 1.75 8.26087C1.75 8.50725 1.834 8.71362 2.002 8.88C2.16942 9.04696 2.37708 9.13043 2.625 9.13043ZM5.25 18.2609C5.49792 18.2609 5.70587 18.1774 5.87387 18.0104C6.04129 17.8441 6.125 17.6377 6.125 17.3913C6.125 17.1449 6.04129 16.9386 5.87387 16.7722C5.70587 16.6052 5.49792 16.5217 5.25 16.5217C5.00208 16.5217 4.79413 16.6052 4.62613 16.7722C4.45871 16.9386 4.375 17.1449 4.375 17.3913C4.375 17.6377 4.45871 17.8441 4.62613 18.0104C4.79413 18.1774 5.00208 18.2609 5.25 18.2609ZM10.5 3.47826C10.7479 3.47826 10.9559 3.39478 11.1239 3.22783C11.2913 3.06145 11.375 2.85507 11.375 2.6087C11.375 2.36232 11.2913 2.15565 11.1239 1.9887C10.9559 1.82232 10.7479 1.73913 10.5 1.73913C10.2521 1.73913 10.0444 1.82232 9.877 1.9887C9.709 2.15565 9.625 2.36232 9.625 2.6087C9.625 2.85507 9.709 3.06145 9.877 3.22783C10.0444 3.39478 10.2521 3.47826 10.5 3.47826ZM10.5 13.0435C11.1125 13.0435 11.6302 12.8333 12.0531 12.413C12.476 11.9928 12.6875 11.4783 12.6875 10.8696C12.6875 10.2609 12.476 9.74638 12.0531 9.32609C11.6302 8.9058 11.1125 8.69565 10.5 8.69565C9.8875 8.69565 9.36979 8.9058 8.94688 9.32609C8.52396 9.74638 8.3125 10.2609 8.3125 10.8696C8.3125 11.4783 8.52396 11.9928 8.94688 12.413C9.36979 12.8333 9.8875 13.0435 10.5 13.0435ZM15.75 18.2609C15.9979 18.2609 16.2056 18.1774 16.373 18.0104C16.541 17.8441 16.625 17.6377 16.625 17.3913C16.625 17.1449 16.541 16.9386 16.373 16.7722C16.2056 16.6052 15.9979 16.5217 15.75 16.5217C15.5021 16.5217 15.2944 16.6052 15.127 16.7722C14.959 16.9386 14.875 17.1449 14.875 17.3913C14.875 17.6377 14.959 17.8441 15.127 18.0104C15.2944 18.1774 15.5021 18.2609 15.75 18.2609ZM18.375 9.13043C18.6229 9.13043 18.8306 9.04696 18.998 8.88C19.166 8.71362 19.25 8.50725 19.25 8.26087C19.25 8.01449 19.166 7.80783 18.998 7.64087C18.8306 7.47449 18.6229 7.3913 18.375 7.3913C18.1271 7.3913 17.9194 7.47449 17.752 7.64087C17.584 7.80783 17.5 8.01449 17.5 8.26087C17.5 8.50725 17.584 8.71362 17.752 8.88C17.9194 9.04696 18.1271 9.13043 18.375 9.13043Z" fill="black" fill-opacity="0.6"/>
</svg>
